<?xml version="1.0" encoding="utf-8"?>
<svg version="1.2" baseProfile="tiny-ps" xmlns="http://www.w3.org/2000/svg" viewBox="0 0 512 512">
    <title>CML Logo</title>
    <desc>A dark blue circle with the white letters CML centered inside.</desc>
    <circle fill="#004A8D" cx="256" cy="256" r="230" />
    <g fill="#FFFFFF">
        <path d="M198.5,315.6c-10.2,9.4-22.9,14.1-38.2,14.1c-15.5,0-28.5-5.2-39.1-15.5c-10.6-10.3-15.9-24.1-15.9-41.5 c0-17.6,5.3-31.5,15.9-41.8c10.6-10.3,23.6-15.5,39.1-15.5c15.1,0,27.7,4.6,37.8,13.7l-15.4,17.4c-6.8-5.7-14.3-8.6-22.4-8.6 c-9.1,0-16.7,3.1-22.8,9.4c-6.1,6.3-9.1,14.8-9.1,25.4c0,10.7,3,19.3,9.1,25.7c6.1,6.4,13.7,9.6,22.8,9.6c8.5,0,16.4-3.2,23.5-9.6 L198.5,315.6z"/>
        <path d="M220.8,214.3h31.2l20.4,66.8l20.3-66.8h30.8V327h-24.3V245l-21.7,70.9h-11.7L245,245.1V327h-24.2V214.3z"/>
        <path d="M363.4,214.3h26.7V304h42.1v23h-68.8V214.3z"/>
    </g>
</svg>

